<svg xmlns="http://www.w3.org/2000/svg" viewBox="0 0 128 128" fill="currentColor">
  <!-- Arch Linux Logo - Filled version -->
  <path d="M64 10c-29.8 0-54 24.2-54 54s24.2 54 54 54 54-24.2 54-54-24.2-54-54-54zm0 8c25.4 0 46 20.6 46 46s-20.6 46-46 46-46-20.6-46-46 20.6-46 46-46z"/>
  <path d="M64 28c-19.9 0-36 16.1-36 36s16.1 36 36 36 36-16.1 36-36-16.1-36-36-36zm0 8c15.5 0 28 12.5 28 28s-12.5 28-28 28-28-12.5-28-28 12.5-28 28-28z"/>
  <path d="M64 35c-16.0 0-29 13-29 29s13 29 29 29 29-13 29-29-13-29-29-29zm0 7c12.2 0 22 9.8 22 22s-9.8 22-22 22-22-9.8-22-22 9.8-22 22-22z"/>
  <!-- Mountain peaks (stylized for Arch) -->
  <polygon points="50,70 64,45 78,70"/>
  <polygon points="38,75 52,55 66,75"/>
  <polygon points="62,75 76,55 90,75"/>
</svg>
